<?xml version="1.0" encoding="UTF-8" standalone="no"?>
<svg
   xmlns:dc="http://purl.org/dc/elements/1.1/"
   xmlns:cc="http://creativecommons.org/ns#"
   xmlns:rdf="http://www.w3.org/1999/02/22-rdf-syntax-ns#"
   xmlns:svg="http://www.w3.org/2000/svg"
   xmlns="http://www.w3.org/2000/svg"
   xmlns:sodipodi="http://sodipodi.sourceforge.net/DTD/sodipodi-0.dtd"
   xmlns:inkscape="http://www.inkscape.org/namespaces/inkscape"
   version="1.1"
   x="0px"
   y="0px"
   viewBox="0 0 512 512"
   xml:space="preserve"
   id="svg107"
   sodipodi:docname="logo.svg"
   width="512"
   height="512"
   inkscape:export-filename="C:\Users\Eric\Downloads\BlackDragonSoftware_logo\SVG\logo256.png"
   inkscape:export-xdpi="48"
   inkscape:export-ydpi="48"
   inkscape:version="1.0.1 (3bc2e813f5, 2020-09-07)"><metadata
   id="metadata113"><rdf:RDF><cc:Work
       rdf:about=""><dc:format>image/svg+xml</dc:format><dc:type
         rdf:resource="http://purl.org/dc/dcmitype/StillImage" /><dc:title></dc:title></cc:Work></rdf:RDF></metadata><defs
   id="defs111" /><sodipodi:namedview
   pagecolor="#ffffff"
   bordercolor="#666666"
   borderopacity="1"
   objecttolerance="10"
   gridtolerance="10"
   guidetolerance="10"
   inkscape:pageopacity="0"
   inkscape:pageshadow="2"
   inkscape:window-width="1904"
   inkscape:window-height="1011"
   id="namedview109"
   showgrid="false"
   inkscape:zoom="1.042"
   inkscape:cx="286.86103"
   inkscape:cy="189.92129"
   inkscape:window-x="1920"
   inkscape:window-y="0"
   inkscape:window-maximized="1"
   inkscape:current-layer="logo" />
<style
   type="text/css"
   id="style2">
	.st0{display:none;}
	.st1{display:inline;fill:#FFFFFF;}
	.st2{fill:#373737;}
	.st3{fill:none;}
	.st4{fill:#FFFFFF;}
	.st5{fill:#E91E63;}
	.st6{clip-path:url(#SVGID_2_);fill:#7B7B7B;}
	.st7{clip-path:url(#SVGID_2_);fill:#B3B3B3;}
	.st8{clip-path:url(#SVGID_4_);fill:#525253;}
	.st9{clip-path:url(#SVGID_4_);fill:#B3B3B3;}
	.st10{fill:#CCCCCC;}
	.st11{fill:#B3B3B3;}
	.st12{fill:#565656;}
	.st13{display:inline;}
	.st14{fill:#808080;}
	.st15{fill:#FFFFFF;stroke:#FFFFFF;stroke-miterlimit:10;}
	.st16{opacity:0.24;}
</style>
<g
   id="Backgrounds"
   class="st0">
	<rect
   x="-1084"
   y="-36"
   class="st1"
   width="3144"
   height="1264"
   id="rect4" />
</g>
<g
   id="logo">
	
	<g
   id="g101"
   transform="matrix(1.8554139,0,0,1.8554139,-85.96668,-28.715018)">
		<g
   id="g83">
			<g
   id="g57">
				<g
   id="g49">
					<path
   class="st2"
   d="m 298.7,118.2 c -0.1,-0.5 -1.3,-1.6 -3.5,-3.1 -0.1,0.1 -0.2,0.3 -0.3,0.4 -30.5,13.4 -55.9,-12.5 -59.6,-21.1 1.4,-0.1 3.6,-0.7 6.4,-1.7 -14.8,-4 -31.6,-7 -49.3,-7.4 -9.6,-0.3 -19.5,0.4 -29.2,1.7 -48.9,6.6 20.4,94.1 20.2,96.9 -1.3,21.7 -1.7,45.7 -0.7,63.8 1,0 2.1,0 3.1,0 0.5,0 1.1,0 1.6,0 3.1,0 6.5,-0.2 11,-0.5 4.4,-0.2 7.8,-0.5 10.9,-0.8 4.1,-0.4 7.7,-0.9 10.8,-1.6 2.2,-0.5 3.8,-1 5.2,-1.5 0.9,-0.4 1.7,-0.8 2.3,-1.3 0.8,-0.6 1.3,-1.3 1.5,-2.1 0,-0.1 0.1,-0.1 0.1,-0.1 0,0 0.1,0 0.1,0.1 v 0.1 c 0.1,0.5 0.1,1.1 -0.1,1.6 0,0.1 -0.1,0.3 -0.1,0.4 0,0.1 -0.1,0.2 -0.1,0.3 l -0.5,0.8 c -0.7,0.9 -1.5,1.7 -2.2,2.3 -1.8,1.4 -3.7,2.4 -5.2,3 -3.3,1.4 -6.9,2.5 -11,3.2 -3.2,0.6 -6.8,0.6 -11.2,0.2 h -0.4 c -1.8,-0.2 -3.5,-0.3 -5.3,-0.5 -1.6,-0.1 -3.3,-0.2 -5.3,-0.2 -0.1,0 -0.3,0 -0.4,0 -0.5,0 -1,0 -1.4,0 -1,0 -2.1,0.1 -3.1,0.1 1.1,14.6 3.2,24.5 6.7,24.5 8,0 68.5,-30.4 69.7,-46.9 5,-10.3 -8.7,-38.2 29.2,-57.7 -21.6,-16.5 2.5,-44.1 10.1,-52.9 z M 195,234.1 c 1.3,-4.8 9.1,-17.7 14.3,-12.6 5.1,5.1 -2.3,11.4 -14.3,12.6 z"
   id="path47" />
				</g>
				<g
   id="g53">
					<path
   d="m 181.7,251.2 -1.9,0.2 c -1.3,0.1 -2.5,0.2 -3.8,0.3 -0.9,0.1 -1.8,0.1 -2.8,0.1 -0.8,0 -1.8,0 -2.8,-0.1 -1.8,-0.1 -3.7,-0.4 -5.6,-0.8 -4.4,-1 -7.9,-2.2 -10.9,-3.8 -0.8,-0.4 -1.7,-0.9 -2.6,-1.5 -1,-0.7 -1.8,-1.3 -2.4,-1.9 -0.7,-0.7 -1.4,-1.6 -1.9,-2.6 l -0.1,-0.2 c -0.1,-0.2 -0.1,-0.4 -0.2,-0.5 v -0.3 c 0,-0.2 -0.1,-0.4 -0.1,-0.5 v -0.1 c 0,-0.3 0,-0.5 0.1,-0.7 0.1,-0.3 0.2,-0.5 0.3,-0.9 0,0 0.1,-0.1 0.1,0 0,0 0.1,0.1 0.1,0.1 -0.2,1.1 0.1,2.6 2.6,4.3 1.3,0.8 2.9,1.5 4.9,2.2 3,1 6.4,1.7 10.7,2.2 3.6,0.5 7.3,0.8 10.9,0.9 1.7,0.1 3.6,0.2 5.5,0.2 1.3,0 2.6,0 3.8,0 0,0 0,0 0,0 -0.3,-12.1 0.3,-24.5 1.3,-30.6 1.9,-11.7 4,-43.1 -2.9,-63.3 -5.7,-16.5 -5.8,-49.1 -4.2,-68.4 -17.1,0.8 -34.4,4.2 -50,8.4 2.8,1.1 5.1,1.8 6.5,1.9 -3.9,8.4 -29.6,30.3 -62.5,19.8 -2.4,1.4 -3.5,2.4 -3.2,2.8 16.1,16.1 20.5,34.3 9,52.7 19.9,6.9 34.1,45.3 34.1,58.3 0,19.5 67.7,46.5 75.8,46.5 -2.2,-5.2 -3.3,-14.6 -3.8,-24.6 -1.2,-0.3 -2.6,-0.2 -4,-0.1 z m -19.2,-29.7 c 5.1,-5.1 13,7.8 14.3,12.6 -12,-1.2 -19.5,-7.5 -14.3,-12.6 z"
   id="path51" />
				</g>
				<path
   class="st3"
   d="m 70.8,118.2 c -2.3,-2.3 63.4,-34.5 121.6,-33 58.2,1.5 106,29.9 106.4,32.9 -7.7,8.8 -31.7,36.4 -10.3,52.9 -37.9,19.5 -26.2,46.6 -29.2,57.7 -4.2,15.9 -61.6,46.9 -69.7,46.9 -8,0 -75.8,-27 -75.8,-46.5 0,-13 -6.1,-52.5 -34.1,-58.3 11.6,-18.3 7.1,-36.5 -8.9,-52.6 z"
   id="path55" />
			</g>
			<g
   id="g69">
				<g
   id="g61">
					<circle
   class="st4"
   cx="235"
   cy="170"
   r="14.4"
   id="circle59" />
				</g>
				<g
   id="g65">
					<circle
   cx="235.60001"
   cy="176.39999"
   r="7.1999998"
   id="circle63" />
				</g>
				<circle
   class="st3"
   cx="235"
   cy="170"
   r="14.4"
   id="circle67" />
			</g>
			<g
   id="g81">
				<g
   id="g73">
					<circle
   class="st4"
   cx="140.39999"
   cy="170"
   r="14.4"
   id="circle71" />
				</g>
				<g
   id="g77">
					<circle
   cx="141"
   cy="176.39999"
   r="7.1999998"
   id="circle75" />
				</g>
				<circle
   class="st3"
   cx="140.39999"
   cy="170"
   r="14.4"
   id="circle79" />
			</g>
		</g>
		<g
   id="g91">
			<path
   class="st3"
   d="m 229.7,90.8 c 9.6,-0.6 60.5,-19.2 82.5,-49 0.4,34.1 -14.4,65.9 -21.7,73.1 -28.2,8.7 -57.1,-15.5 -60.8,-24.1 z"
   id="path85" />
			<g
   id="g89">
				<path
   class="st2"
   d="m 229.7,90.8 c 3.7,8.6 32.6,32.9 60.7,24.1 7.3,-7.3 22.1,-39 21.7,-73.1 -21.9,29.7 -72.8,48.3 -82.4,49 z m 16.3,6.6 c -2.7,-1.4 -4.5,-3.9 -4.5,-3.9 14.1,-5.4 39,-15.9 61.8,-35.4 -11,10.6 -26.3,25.1 -57.3,39.3 z"
   id="path87" />
			</g>
		</g>
		<g
   id="g99">
			<path
   class="st3"
   d="M 140.6,91.4 C 131,90.5 80.6,70.7 59.4,40.3 c -1.3,34.1 12.8,66.2 19.9,73.7 27.9,9.4 57.4,-14.1 61.3,-22.6 z"
   id="path93" />
			<g
   id="g97">
				<path
   d="m 59.4,40.3 c -1.3,34.1 12.8,66.2 19.9,73.7 27.9,9.5 57.4,-14 61.3,-22.6 C 131,90.5 80.6,70.6 59.4,40.3 Z m 64.8,57.3 C 93.6,82.6 78.7,67.8 67.9,56.8 c 22.3,20.1 46.8,31.3 60.8,37 0,0.1 -1.8,2.5 -4.5,3.8 z"
   id="path95" />
			</g>
		</g>
	</g>
</g>
<g
   id="_x30_1">
</g>
<g
   id="Sketch_Layer"
   class="st16">
</g>
<g
   id="Export_Settings"
   class="st0">
</g>
</svg>
